# xmcd
#
# Track frame offsets: 
#        150
#        19751
#        42833
#        60332
#        72644
#        90692
#        112542
#        135714
#        155806
#        173657
#
# Disc length: 2547 seconds
#
# Revision: 3
# Processed by: cddbd v1.5.2PL0 Copyright (c) Steve Scherf et al.
# Submitted via: ExactAudioCopy v0.99pb5
#
DISCID=7c09f10a
DTITLE=LITTLE STEVEN and THE DISCIPLES OF SOUL - MEN WITHOUT WOMEN
DYEAR=1982
DGENRE=Rock
TTITLE0=Lyin' In A Bed Of Fire
TTITLE1=Inside Of Me
TTITLE2=Until The Good Is Gone
TTITLE3=Men Without Women
TTITLE4=Under The Gun
TTITLE5=Save Me
TTITLE6=Princess Of Little Italy
TTITLE7=Angel Eyes
TTITLE8=Forever
TTITLE9=I've Been Waiting
EXTD=
EXTT0=
EXTT1=
EXTT2=
EXTT3=
EXTT4=
EXTT5=
EXTT6=
EXTT7=
EXTT8=
EXTT9=
PLAYORDER=
